<?xml version="1.0" encoding="UTF-8" standalone="no"?>
<!-- Created with Inkscape (http://www.inkscape.org/) -->

<svg
   width="656.25208mm"
   height="23.387762mm"
   viewBox="0 0 656.25209 23.387762"
   version="1.1"
   id="svg19189"
   inkscape:version="1.3.2 (091e20e, 2023-11-25)"
   sodipodi:docname="cloud_bar.svg"
   inkscape:export-filename="../../../code/mkdocs-test/docs/assets/images/cloud_bar.png"
   inkscape:export-xdpi="287.04483"
   inkscape:export-ydpi="287.04483"
   xmlns:inkscape="http://www.inkscape.org/namespaces/inkscape"
   xmlns:sodipodi="http://sodipodi.sourceforge.net/DTD/sodipodi-0.dtd"
   xmlns="http://www.w3.org/2000/svg"
   xmlns:svg="http://www.w3.org/2000/svg">
  <sodipodi:namedview
     id="namedview19191"
     pagecolor="#505050"
     bordercolor="#eeeeee"
     borderopacity="1"
     inkscape:showpageshadow="0"
     inkscape:pageopacity="0"
     inkscape:pagecheckerboard="0"
     inkscape:deskcolor="#505050"
     inkscape:document-units="mm"
     showgrid="false"
     inkscape:zoom="0.33664435"
     inkscape:cx="1259.4894"
     inkscape:cy="-68.321361"
     inkscape:window-width="1392"
     inkscape:window-height="1027"
     inkscape:window-x="0"
     inkscape:window-y="25"
     inkscape:window-maximized="0"
     inkscape:current-layer="layer1" />
  <defs
     id="defs19186" />
  <g
     inkscape:label="Layer 1"
     inkscape:groupmode="layer"
     id="layer1"
     transform="translate(349.52311,121.15746)">
    <path
       id="rect17180"
       style="fill:#e4f6fe;fill-opacity:1;stroke-width:0.872776"
       d="m -46.459926,-121.15166 a 16.084053,17.06884 50.264577 0 0 -1.097411,0.007 16.084053,17.06884 50.264577 0 0 -10.9965,4.44274 16.084053,17.06884 50.264577 0 0 -2.987919,3.40652 12.851951,11.287932 0 0 0 -8.881813,-2.9807 12.851951,11.287932 0 0 0 -1.826601,0.14408 12.851951,11.287932 0 0 0 -6.69514,2.91498 c -2.741646,-2.77476 -6.430609,-4.45967 -10.409514,-4.74339 h -9.11e-4 c -3.206992,-0.22316 -6.445274,0.47487 -9.329244,2.01115 -2.414451,1.30239 -4.889451,3.4532 -6.481771,5.70488 -4.09727,-5.17399 -10.31288,-8.15208 -16.8598,-8.05181 -1.01163,0.0187 -2.02069,0.11107 -3.01943,0.27636 -5.59351,0.9441 -10.71544,4.27459 -13.99521,8.98085 -0.40201,-0.0265 -0.84836,-0.0428 -1.19822,-0.0406 -0.5615,0.009 -1.12103,0.0487 -1.67537,0.12156 -2.0432,0.27505 -3.95996,0.98038 -5.5581,2.04356 a 11.927168,10.456646 0 0 0 -9.73256,-4.18973 11.927168,10.456646 0 0 0 -1.69517,0.13325 11.927168,10.456646 0 0 0 -7.56746,4.0268 c -3.90513,-7.65062 -13.37311,-14.17074 -23.65306,-14.12665 -6.56878,-0.0837 -13.20394,2.98497 -17.53227,6.64289 a 15.984396,14.685004 0 0 0 -8.43442,-2.05704 15.984396,14.685004 0 0 0 -2.2713,0.18723 15.984396,14.685004 0 0 0 -3.69912,1.01459 12.745789,12.472902 0 0 0 -2.00484,-0.14218 12.745789,12.472902 0 0 0 -1.8113,0.15938 12.745789,12.472902 0 0 0 -4.91534,1.86619 c -4.0109,-4.51132 -10.77234,-7.05984 -18.21197,-6.84726 -3.06183,0.0927 -6.12973,0.65096 -9.02947,1.64294 -6.39259,2.20079 -11.19518,6.95904 -14.48764,11.60147 -2.16353,-2.45562 -5.874,-4.05949 -9.82708,-4.00428 -0.56128,0.009 -1.12033,0.0519 -1.67446,0.1305 -2.88493,0.41627 -5.48673,1.75353 -7.30279,3.74681 a 8.9979779,8.6170205 0 0 0 -6.38995,-2.42617 8.9979779,8.6170205 0 0 0 -1.27924,0.11072 8.9979779,8.6170205 0 0 0 -0.58427,0.12964 18.336848,14.668632 2.7773286 0 0 -16.78059,-9.38597 h -8.7e-4 a 18.336848,14.668632 2.7773286 0 0 -2.60894,0.0891 18.336848,14.668632 2.7773286 0 0 -12.32073,5.72106 13.729824,11.646408 0 0 0 -10.27452,-3.70179 13.729824,11.646408 0 0 0 -1.95084,0.14769 13.729824,11.646408 0 0 0 -6.01003,2.19661 v 16.172896 h 0.005 v 0.306086 h 332.073604 v -0.300671 h 0.0017 V -118.1406 c -1.513895,-0.25592 -3.068021,-0.36852 -4.622749,-0.33489 -0.776728,0.0174 -1.551117,0.07 -2.318131,0.15938 -3.41623,0.40517 -7.148141,1.86726 -9.761372,3.58477 a 16.084053,17.06884 50.264577 0 0 -0.928147,-1.20632 16.084053,17.06884 50.264577 0 0 -11.386299,-5.21332 z" />
    <path
       id="rect17180-8"
       style="fill:#e4f6fe;fill-opacity:1;stroke-width:0.872776"
       d="m 3.6657665,-121.15166 a 17.06884,16.084053 39.735423 0 1 1.09741,0.007 17.06884,16.084053 39.735423 0 1 10.9964995,4.44274 17.06884,16.084053 39.735423 0 1 2.98792,3.40652 12.851951,11.287932 0 0 1 8.88181,-2.9807 12.851951,11.287932 0 0 1 1.8266,0.14408 12.851951,11.287932 0 0 1 6.69514,2.91498 c 2.74165,-2.77476 6.43061,-4.45967 10.40951,-4.74339 h 9.2e-4 c 3.20699,-0.22316 6.44527,0.47487 9.32924,2.01115 2.41445,1.30239 4.88945,3.4532 6.48177,5.70488 4.09727,-5.17399 10.31288,-8.15208 16.8598,-8.05181 1.01163,0.0187 2.02069,0.11107 3.01943,0.27636 5.59351,0.9441 10.715438,4.27459 13.995208,8.98085 0.40201,-0.0265 0.84836,-0.0428 1.19822,-0.0406 0.5615,0.009 1.12103,0.0487 1.67537,0.12156 2.043196,0.27505 3.959956,0.98038 5.558096,2.04356 a 11.927168,10.456646 0 0 1 9.73256,-4.18973 11.927168,10.456646 0 0 1 1.69517,0.13325 11.927168,10.456646 0 0 1 7.56746,4.0268 c 3.90513,-7.65062 13.37311,-14.17074 23.65306,-14.12665 6.56878,-0.0837 13.20394,2.98497 17.53227,6.64289 a 15.984396,14.685004 0 0 1 8.43442,-2.05704 15.984396,14.685004 0 0 1 2.2713,0.18723 15.984396,14.685004 0 0 1 3.69912,1.01459 12.745789,12.472902 0 0 1 2.00484,-0.14218 12.745789,12.472902 0 0 1 1.8113,0.15938 12.745789,12.472902 0 0 1 4.91534,1.86619 c 4.0109,-4.51132 10.77234,-7.05984 18.21197,-6.84726 3.06183,0.0927 6.12973,0.65096 9.02947,1.64294 6.39259,2.20079 11.19518,6.95904 14.48764,11.60147 2.16353,-2.45562 5.874,-4.05949 9.82708,-4.00428 0.56128,0.009 1.12033,0.0519 1.67446,0.1305 2.88493,0.41627 5.48673,1.75353 7.30279,3.74681 a 8.9979779,8.6170205 0 0 1 6.38995,-2.42617 8.9979779,8.6170205 0 0 1 1.27924,0.11072 8.9979779,8.6170205 0 0 1 0.58427,0.12964 14.668632,18.336848 87.222671 0 1 16.78059,-9.38597 h 8.7e-4 a 14.668632,18.336848 87.222671 0 1 2.60894,0.0891 14.668632,18.336848 87.222671 0 1 12.32073,5.72106 13.729824,11.646408 0 0 1 10.27452,-3.70179 13.729824,11.646408 0 0 1 1.95084,0.14769 13.729824,11.646408 0 0 1 6.01003,2.19661 v 16.172897 h -0.005 v 0.306086 H -25.349654 v -0.300671 h -0.002 V -118.1406 c 1.51389,-0.25592 3.06802,-0.36852 4.62275,-0.33489 0.77672,0.0174 1.55111,0.07 2.31813,0.15938 3.41623,0.40517 7.14814,1.86726 9.7613702,3.58477 a 17.06884,16.084053 39.735423 0 1 0.92815,-1.20632 17.06884,16.084053 39.735423 0 1 11.3862903,-5.21332 z" />
  </g>
</svg>
